# xmcd
# 
# Track frame offsets:
#     187
#     111184
#     171847
# 
# Disc length: 3053
# 
# Revision: 1
# Processed by: cddbd v1.5.2PL0 Copyright (c) Steve Scherf et al.
# Submitted via: BonkEnc v1.0.8
# 
DISCID=1f0beb03
DTITLE=Various Artist - Jazz Of Japan Live Under The Sky '77
DYEAR=1977
DGENRE=Contemporary Jazz
TTITLE0=Free Land
TTITLE1=Brasil Berco Dos Imigrantes
TTITLE2=Night Breeze
EXTD=
EXTT0=
EXTT1=
EXTT2=
PLAYORDER=
